<svg width="161" height="36" viewBox="0 0 161 36" fill="none" xmlns="http://www.w3.org/2000/svg">
<rect x="0.5" y="0.5" width="160" height="35" stroke="#FFCD00"/>
<path d="M38.3898 10.4512L38.0362 10.0977L37.6827 10.4512L32.9025 15.2315L30.2071 12.5361L38.0362 4.70721L45.8653 12.5362L43.17 15.2315L38.3898 10.4512ZM37.6827 25.621L38.0362 25.9746L38.3898 25.621L43.17 20.8408L45.8654 23.5361L38.0362 31.3653L30.2071 23.5361L32.9025 20.8408L37.6827 25.621ZM29.329 18L27.0319 20.2971L24.7115 18.0319L27.0361 15.7071L29.329 18ZM46.7432 18L49.0361 15.7071L51.361 18.0319L49.0404 20.2971L46.7432 18ZM40.3654 18.0362L38.0362 20.3654L35.7071 18.0362L38.0362 15.7071L40.3654 18.0362Z" stroke="#FFCD00"/>
<path d="M59.245 23V12.5H64.375C65.695 12.5 66.685 12.75 67.345 13.25C68.015 13.75 68.35 14.41 68.35 15.23C68.35 15.78 68.215 16.26 67.945 16.67C67.675 17.07 67.305 17.38 66.835 17.6C66.365 17.82 65.825 17.93 65.215 17.93L65.5 17.315C66.16 17.315 66.745 17.425 67.255 17.645C67.765 17.855 68.16 18.17 68.44 18.59C68.73 19.01 68.875 19.525 68.875 20.135C68.875 21.035 68.52 21.74 67.81 22.25C67.1 22.75 66.055 23 64.675 23H59.245ZM61.66 21.17H64.495C65.125 21.17 65.6 21.07 65.92 20.87C66.25 20.66 66.415 20.33 66.415 19.88C66.415 19.44 66.25 19.115 65.92 18.905C65.6 18.685 65.125 18.575 64.495 18.575H61.48V16.805H64.075C64.665 16.805 65.115 16.705 65.425 16.505C65.745 16.295 65.905 15.98 65.905 15.56C65.905 15.15 65.745 14.845 65.425 14.645C65.115 14.435 64.665 14.33 64.075 14.33H61.66V21.17ZM70.7147 23V12.5H73.1447V23H70.7147ZM75.6366 23V12.5H77.6466L83.8416 20.06H82.8666V12.5H85.2666V23H83.2716L77.0616 15.44H78.0366V23H75.6366ZM86.3709 23L91.0509 12.5H93.4509L98.1459 23H95.5959L91.7559 13.73H92.7159L88.8609 23H86.3709ZM88.7109 20.75L89.3559 18.905H94.7559L95.4159 20.75H88.7109ZM99.2352 23V12.5H101.245L107.44 20.06H106.465V12.5H108.865V23H106.87L100.66 15.44H101.635V23H99.2352ZM116.374 23.18C115.564 23.18 114.809 23.05 114.109 22.79C113.419 22.52 112.819 22.14 112.309 21.65C111.799 21.16 111.399 20.585 111.109 19.925C110.829 19.265 110.689 18.54 110.689 17.75C110.689 16.96 110.829 16.235 111.109 15.575C111.399 14.915 111.799 14.34 112.309 13.85C112.829 13.36 113.434 12.985 114.124 12.725C114.814 12.455 115.569 12.32 116.389 12.32C117.299 12.32 118.119 12.48 118.849 12.8C119.589 13.11 120.209 13.57 120.709 14.18L119.149 15.62C118.789 15.21 118.389 14.905 117.949 14.705C117.509 14.495 117.029 14.39 116.509 14.39C116.019 14.39 115.569 14.47 115.159 14.63C114.749 14.79 114.394 15.02 114.094 15.32C113.794 15.62 113.559 15.975 113.389 16.385C113.229 16.795 113.149 17.25 113.149 17.75C113.149 18.25 113.229 18.705 113.389 19.115C113.559 19.525 113.794 19.88 114.094 20.18C114.394 20.48 114.749 20.71 115.159 20.87C115.569 21.03 116.019 21.11 116.509 21.11C117.029 21.11 117.509 21.01 117.949 20.81C118.389 20.6 118.789 20.285 119.149 19.865L120.709 21.305C120.209 21.915 119.589 22.38 118.849 22.7C118.119 23.02 117.294 23.18 116.374 23.18ZM124.585 16.73H129.64V18.62H124.585V16.73ZM124.765 21.05H130.48V23H122.35V12.5H130.285V14.45H124.765V21.05Z" fill="#FFCD00"/>
</svg>
