<svg width="161" height="36" viewBox="0 0 161 36" fill="none" xmlns="http://www.w3.org/2000/svg">
<rect x="0.5" y="0.5" width="160" height="35" stroke="#FFCD00"/>
<path d="M43.2048 13.6527C40.2031 12.1882 35 11.2395 35 11.2395V4C35 4 43.215 4.73715 47.5485 7.37844C51.882 10.0197 58.076 19.4074 61.0623 21.3748C64.0486 23.3423 69.7497 24.2707 69.7497 24.2707V31.5102C69.7497 31.5102 64.4407 33.451 55.7533 27.1665C47.0659 20.882 49.6774 16.8105 43.2048 13.6527Z" stroke="#FFCD00"/>
<path d="M47.9538 18.2119C47.0001 19.3217 45.9295 20.3927 44.6527 21.3749C41.2037 24.028 35 23.788 35 23.788V31.5102C35 31.5102 42.1411 30.7106 46.1006 28.6144C48.7659 27.2033 50.5144 25.6395 51.8922 24.0222M52.658 11.9133C54.3526 9.70605 56.256 7.72943 59.1317 6.41317C62.9983 4.64344 69.7497 4 69.7497 4V11.2395C69.7497 11.2395 63.7386 12.1045 60.5796 14.1353C59.1197 15.0738 57.9978 16.0799 57.0532 17.1244" stroke="#FFCD00"/>
<path d="M78.66 25V11H85.5C87.26 11 88.58 11.3333 89.46 12C90.3533 12.6667 90.8 13.5467 90.8 14.64C90.8 15.3733 90.62 16.0133 90.26 16.56C89.9 17.0933 89.4067 17.5067 88.78 17.8C88.1533 18.0933 87.4333 18.24 86.62 18.24L87 17.42C87.88 17.42 88.66 17.5667 89.34 17.86C90.02 18.14 90.5467 18.56 90.92 19.12C91.3067 19.68 91.5 20.3667 91.5 21.18C91.5 22.38 91.0267 23.32 90.08 24C89.1333 24.6667 87.74 25 85.9 25H78.66ZM81.88 22.56H85.66C86.5 22.56 87.1333 22.4267 87.56 22.16C88 21.88 88.22 21.44 88.22 20.84C88.22 20.2533 88 19.82 87.56 19.54C87.1333 19.2467 86.5 19.1 85.66 19.1H81.64V16.74H85.1C85.8867 16.74 86.4867 16.6067 86.9 16.34C87.3267 16.06 87.54 15.64 87.54 15.08C87.54 14.5333 87.3267 14.1267 86.9 13.86C86.4867 13.58 85.8867 13.44 85.1 13.44H81.88V22.56ZM93.733 25V14.24H96.853V25H93.733ZM95.293 12.74C94.7196 12.74 94.253 12.5733 93.893 12.24C93.533 11.9067 93.353 11.4933 93.353 11C93.353 10.5067 93.533 10.0933 93.893 9.76C94.253 9.42667 94.7196 9.26 95.293 9.26C95.8663 9.26 96.333 9.42 96.693 9.74C97.053 10.0467 97.233 10.4467 97.233 10.94C97.233 11.46 97.053 11.8933 96.693 12.24C96.3463 12.5733 95.8796 12.74 95.293 12.74ZM106.289 14.08C107.142 14.08 107.902 14.2533 108.569 14.6C109.249 14.9333 109.782 15.4533 110.169 16.16C110.555 16.8533 110.749 17.7467 110.749 18.84V25H107.629V19.32C107.629 18.4533 107.435 17.8133 107.049 17.4C106.675 16.9867 106.142 16.78 105.449 16.78C104.955 16.78 104.509 16.8867 104.109 17.1C103.722 17.3 103.415 17.6133 103.189 18.04C102.975 18.4667 102.869 19.0133 102.869 19.68V25H99.7486V14.24H102.729V17.22L102.169 16.32C102.555 15.6 103.109 15.0467 103.829 14.66C104.549 14.2733 105.369 14.08 106.289 14.08ZM118.715 29.04C117.702 29.04 116.722 28.9133 115.775 28.66C114.842 28.42 114.062 28.0533 113.435 27.56L114.675 25.32C115.128 25.6933 115.702 25.9867 116.395 26.2C117.102 26.4267 117.795 26.54 118.475 26.54C119.582 26.54 120.382 26.2933 120.875 25.8C121.382 25.3067 121.635 24.5733 121.635 23.6V21.98L121.835 19.28L121.795 16.56V14.24H124.755V23.2C124.755 25.2 124.235 26.6733 123.195 27.62C122.155 28.5667 120.662 29.04 118.715 29.04ZM118.235 24.48C117.235 24.48 116.328 24.2667 115.515 23.84C114.715 23.4 114.068 22.7933 113.575 22.02C113.095 21.2333 112.855 20.32 112.855 19.28C112.855 18.2267 113.095 17.3133 113.575 16.54C114.068 15.7533 114.715 15.1467 115.515 14.72C116.328 14.2933 117.235 14.08 118.235 14.08C119.142 14.08 119.942 14.2667 120.635 14.64C121.328 15 121.868 15.5667 122.255 16.34C122.642 17.1 122.835 18.08 122.835 19.28C122.835 20.4667 122.642 21.4467 122.255 22.22C121.868 22.98 121.328 23.5467 120.635 23.92C119.942 24.2933 119.142 24.48 118.235 24.48ZM118.855 21.92C119.402 21.92 119.888 21.8133 120.315 21.6C120.742 21.3733 121.075 21.06 121.315 20.66C121.555 20.26 121.675 19.8 121.675 19.28C121.675 18.7467 121.555 18.2867 121.315 17.9C121.075 17.5 120.742 17.1933 120.315 16.98C119.888 16.7533 119.402 16.64 118.855 16.64C118.308 16.64 117.822 16.7533 117.395 16.98C116.968 17.1933 116.628 17.5 116.375 17.9C116.135 18.2867 116.015 18.7467 116.015 19.28C116.015 19.8 116.135 20.26 116.375 20.66C116.628 21.06 116.968 21.3733 117.395 21.6C117.822 21.8133 118.308 21.92 118.855 21.92ZM125.615 25L131.635 16.7V19.06L125.875 11H129.555L133.535 16.62L131.995 16.64L135.915 11H139.435L133.715 18.92V16.6L139.775 25H136.035L131.915 19.06H133.395L129.335 25H125.615Z" fill="#FFCD00"/>
</svg>
