<svg width="161" height="36" viewBox="0 0 161 36" fill="none" xmlns="http://www.w3.org/2000/svg">
<rect x="0.5" y="0.5" width="160" height="35" stroke="#FFCD00"/>
<path d="M47.66 25.5V11.5H54.5C56.26 11.5 57.58 11.8333 58.46 12.5C59.3533 13.1667 59.8 14.0467 59.8 15.14C59.8 15.8733 59.62 16.5133 59.26 17.06C58.9 17.5933 58.4067 18.0067 57.78 18.3C57.1533 18.5933 56.4333 18.74 55.62 18.74L56 17.92C56.88 17.92 57.66 18.0667 58.34 18.36C59.02 18.64 59.5467 19.06 59.92 19.62C60.3067 20.18 60.5 20.8667 60.5 21.68C60.5 22.88 60.0267 23.82 59.08 24.5C58.1333 25.1667 56.74 25.5 54.9 25.5H47.66ZM50.88 23.06H54.66C55.5 23.06 56.1333 22.9267 56.56 22.66C57 22.38 57.22 21.94 57.22 21.34C57.22 20.7533 57 20.32 56.56 20.04C56.1333 19.7467 55.5 19.6 54.66 19.6H50.64V17.24H54.1C54.8867 17.24 55.4867 17.1067 55.9 16.84C56.3267 16.56 56.54 16.14 56.54 15.58C56.54 15.0333 56.3267 14.6267 55.9 14.36C55.4867 14.08 54.8867 13.94 54.1 13.94H50.88V23.06ZM66.14 25.5V19.78L66.88 21.74L60.72 11.5H64.16L68.88 19.36H66.9L71.64 11.5H74.82L68.66 21.74L69.38 19.78V25.5H66.14ZM76.0389 25.5V11.5H82.8789C84.6389 11.5 85.9589 11.8333 86.8389 12.5C87.7322 13.1667 88.1789 14.0467 88.1789 15.14C88.1789 15.8733 87.9989 16.5133 87.6389 17.06C87.2789 17.5933 86.7856 18.0067 86.1589 18.3C85.5322 18.5933 84.8122 18.74 83.9989 18.74L84.3789 17.92C85.2589 17.92 86.0389 18.0667 86.7189 18.36C87.3989 18.64 87.9256 19.06 88.2989 19.62C88.6856 20.18 88.8789 20.8667 88.8789 21.68C88.8789 22.88 88.4056 23.82 87.4589 24.5C86.5122 25.1667 85.1189 25.5 83.2789 25.5H76.0389ZM79.2589 23.06H83.0389C83.8789 23.06 84.5122 22.9267 84.9389 22.66C85.3789 22.38 85.5989 21.94 85.5989 21.34C85.5989 20.7533 85.3789 20.32 84.9389 20.04C84.5122 19.7467 83.8789 19.6 83.0389 19.6H79.0189V17.24H82.4789C83.2656 17.24 83.8656 17.1067 84.2789 16.84C84.7056 16.56 84.9189 16.14 84.9189 15.58C84.9189 15.0333 84.7056 14.6267 84.2789 14.36C83.8656 14.08 83.2656 13.94 82.4789 13.94H79.2589V23.06Z" fill="#FFCD00"/>
<path d="M101.56 26V14.64H97.08V12H109.28V14.64H104.8V26H101.56Z" fill="#FFCD00"/>
<path d="M92.5 4.5H92V5V19.5V20H92.5H94.5H95V19.5V5V4.5H94.5H92.5Z" stroke="#FFCD00"/>
</svg>
