<svg width="40" height="40" viewBox="0 0 40 40" fill="none" xmlns="http://www.w3.org/2000/svg">
<path d="M36.6639 19.4638C36.6639 28.5718 29.3599 35.9718 20.2919 36.1278C20.1959 36.1278 20.0959 36.1278 19.9999 36.1278C10.7959 36.1278 3.33594 28.6678 3.33594 19.4638C3.33594 10.2598 10.7959 2.7998 19.9999 2.7998C29.2039 2.7998 36.6639 10.2598 36.6639 19.4638Z" stroke="url(#paint0_linear_327_300)" stroke-width="1.5" stroke-miterlimit="10"/>
<path d="M19.8477 2.7998L20.1517 36.1318" stroke="url(#paint1_linear_327_300)" stroke-width="1.5" stroke-miterlimit="10"/>
<path d="M20.1167 36.1322C15.4687 36.1642 10.9447 27.0762 10.9807 19.2802C11.0167 11.7602 15.3047 2.8122 19.9647 2.8042C24.6087 2.7962 28.8807 11.6562 29.0207 19.0802C29.1687 26.9042 24.7767 36.1042 20.1167 36.1362V36.1322Z" stroke="url(#paint2_linear_327_300)" stroke-width="1.5" stroke-miterlimit="10"/>
<path d="M7.36328 30.3281C9.94728 29.2361 14.3873 27.7481 20.0753 27.6801C25.7833 27.6121 30.2673 29.0081 32.8753 30.0441" stroke="url(#paint3_linear_327_300)" stroke-width="1.5" stroke-miterlimit="10"/>
<path d="M7.30078 8.6758C9.80078 9.7398 14.2288 11.2478 19.9248 11.2398C25.6728 11.2278 30.1288 9.6758 32.6248 8.5918" stroke="url(#paint4_linear_327_300)" stroke-width="1.5" stroke-miterlimit="10"/>
<path d="M3.33594 19.4639H36.6639" stroke="url(#paint5_linear_327_300)" stroke-width="1.5" stroke-miterlimit="10"/>
<defs>
<linearGradient id="paint0_linear_327_300" x1="3.13594" y1="19.4638" x2="36.8639" y2="19.4638" gradientUnits="userSpaceOnUse">
<stop stop-color="#FFCD03" stop-opacity="0.5"/>
<stop offset="0.5" stop-color="#FFCD03"/>
<stop offset="1" stop-color="#FFCD03" stop-opacity="0.3"/>
</linearGradient>
<linearGradient id="paint1_linear_327_300" x1="19.6477" y1="19.4638" x2="20.3517" y2="19.4638" gradientUnits="userSpaceOnUse">
<stop stop-color="#FFCD03" stop-opacity="0.5"/>
<stop offset="0.5" stop-color="#FFCD03"/>
<stop offset="1" stop-color="#FFCD03" stop-opacity="0.3"/>
</linearGradient>
<linearGradient id="paint2_linear_327_300" x1="10.7767" y1="19.4642" x2="29.2247" y2="19.4642" gradientUnits="userSpaceOnUse">
<stop stop-color="#FFCD03" stop-opacity="0.5"/>
<stop offset="0.5" stop-color="#FFCD03"/>
<stop offset="1" stop-color="#FFCD03" stop-opacity="0.3"/>
</linearGradient>
<linearGradient id="paint3_linear_327_300" x1="7.28328" y1="28.9961" x2="32.9513" y2="28.9961" gradientUnits="userSpaceOnUse">
<stop stop-color="#FFCD03" stop-opacity="0.5"/>
<stop offset="0.5" stop-color="#FFCD03"/>
<stop offset="1" stop-color="#FFCD03" stop-opacity="0.3"/>
</linearGradient>
<linearGradient id="paint4_linear_327_300" x1="7.22078" y1="9.9198" x2="32.7048" y2="9.9198" gradientUnits="userSpaceOnUse">
<stop stop-color="#FFCD03" stop-opacity="0.5"/>
<stop offset="0.5" stop-color="#FFCD03"/>
<stop offset="1" stop-color="#FFCD03" stop-opacity="0.3"/>
</linearGradient>
<linearGradient id="paint5_linear_327_300" x1="-nan" y1="-nan" x2="-nan" y2="-nan" gradientUnits="userSpaceOnUse">
<stop stop-color="#FFCD03" stop-opacity="0.5"/>
<stop offset="0.5" stop-color="#FFCD03"/>
<stop offset="1" stop-color="#FFCD03" stop-opacity="0.3"/>
</linearGradient>
</defs>
</svg>
