<svg width="134" height="216" viewBox="0 0 134 216" fill="none" xmlns="http://www.w3.org/2000/svg">
<mask id="path-1-outside-1_142_442" maskUnits="userSpaceOnUse" x="-1" y="-1" width="136" height="218" fill="black">
<rect fill="white" x="-1" y="-1" width="136" height="218"/>
<path d="M133.07 216H1.42969V202.133C5.33594 201.872 11.3906 201.352 19.5938 200.57C27.9271 199.659 33.6562 198.747 36.7812 197.836C40.8177 196.534 43.8776 194.451 45.9609 191.586C48.1745 188.591 49.2812 184.164 49.2812 178.305V41.1953H0.648438V24.7891H11.3906C25.4531 24.7891 38.0182 22.1849 49.0859 16.9766C60.2839 11.7682 68.2917 6.16927 73.1094 0.179688H89.3203C88.9297 8.64323 88.5391 18.5391 88.1484 29.8672C87.7578 41.1953 87.5625 51.3516 87.5625 60.3359V176.156C87.5625 180.714 88.5391 184.815 90.4922 188.461C92.5755 191.977 95.5052 194.581 99.2812 196.273C102.667 197.706 108.201 199.008 115.883 200.18C123.565 201.352 129.294 202.003 133.07 202.133V216Z"/>
</mask>
<path d="M133.07 216V217H134.07V216H133.07ZM1.42969 216H0.429688V217H1.42969V216ZM1.42969 202.133L1.36317 201.135L0.429688 201.197V202.133H1.42969ZM19.5938 200.57L19.6886 201.566L19.7025 201.564L19.5938 200.57ZM36.7812 197.836L37.0612 198.796L37.0748 198.792L37.0882 198.788L36.7812 197.836ZM45.9609 191.586L45.1567 190.992L45.1522 190.998L45.9609 191.586ZM49.2812 41.1953H50.2812V40.1953H49.2812V41.1953ZM0.648438 41.1953H-0.351562V42.1953H0.648438V41.1953ZM0.648438 24.7891V23.7891H-0.351562V24.7891H0.648438ZM49.0859 16.9766L48.6642 16.0698L48.6601 16.0717L49.0859 16.9766ZM73.1094 0.179688V-0.820312H72.6304L72.3302 -0.447067L73.1094 0.179688ZM89.3203 0.179688L90.3192 0.2258L90.3675 -0.820312H89.3203V0.179688ZM90.4922 188.461L89.6107 188.933L89.6209 188.952L89.6319 188.971L90.4922 188.461ZM99.2812 196.273L98.8722 197.186L98.8819 197.19L98.8916 197.194L99.2812 196.273ZM133.07 202.133H134.07V201.167L133.105 201.133L133.07 202.133ZM133.07 215H1.42969V217H133.07V215ZM2.42969 216V202.133H0.429688V216H2.42969ZM1.49621 203.131C5.41742 202.869 11.4839 202.347 19.6886 201.566L19.4989 199.575C11.2973 200.356 5.25446 200.876 1.36317 201.135L1.49621 203.131ZM19.7025 201.564C28.0311 200.653 33.8416 199.735 37.0612 198.796L36.5013 196.876C33.4709 197.76 27.823 198.664 19.485 199.576L19.7025 201.564ZM37.0882 198.788C41.2854 197.434 44.5387 195.242 46.7697 192.174L45.1522 190.998C43.2165 193.659 40.35 195.634 36.4743 196.884L37.0882 198.788ZM46.7651 192.18C49.1601 188.94 50.2812 184.264 50.2812 178.305H48.2812C48.2812 184.064 47.1888 188.242 45.1568 190.992L46.7651 192.18ZM50.2812 178.305V41.1953H48.2812V178.305H50.2812ZM49.2812 40.1953H0.648438V42.1953H49.2812V40.1953ZM1.64844 41.1953V24.7891H-0.351562V41.1953H1.64844ZM0.648438 25.7891H11.3906V23.7891H0.648438V25.7891ZM11.3906 25.7891C25.5783 25.7891 38.2923 23.1611 49.5117 17.8814L48.6601 16.0717C37.7442 21.2087 25.3279 23.7891 11.3906 23.7891V25.7891ZM49.5077 17.8833C60.7696 12.6452 68.9337 6.9666 73.8886 0.806442L72.3302 -0.447067C67.6497 5.37195 59.7981 10.8913 48.6642 16.0698L49.5077 17.8833ZM73.1094 1.17969H89.3203V-0.820312H73.1094V1.17969ZM88.3214 0.133575C87.9305 8.60205 87.5397 18.5019 87.149 29.8327L89.1478 29.9017C89.5384 18.5762 89.9288 8.68442 90.3192 0.2258L88.3214 0.133575ZM87.149 29.8327C86.7581 41.1695 86.5625 51.3376 86.5625 60.3359H88.5625C88.5625 51.3656 88.7575 41.2211 89.1478 29.9017L87.149 29.8327ZM86.5625 60.3359V176.156H88.5625V60.3359H86.5625ZM86.5625 176.156C86.5625 180.861 87.5721 185.128 89.6107 188.933L91.3737 187.989C89.5061 184.503 88.5625 180.566 88.5625 176.156H86.5625ZM89.6319 188.971C91.8219 192.666 94.9103 195.41 98.8722 197.186L99.6903 195.361C96.1001 193.752 93.3292 191.287 91.3525 187.951L89.6319 188.971ZM98.8916 197.194C102.399 198.678 108.038 199.995 115.732 201.168L116.034 199.191C108.363 198.021 102.934 196.733 99.6709 195.352L98.8916 197.194ZM115.732 201.168C123.422 202.341 129.199 203 133.036 203.132L133.105 201.133C129.39 201.005 123.709 200.362 116.034 199.191L115.732 201.168ZM132.07 202.133V216H134.07V202.133H132.07Z" fill="url(#paint0_linear_142_442)" fill-opacity="0.7" mask="url(#path-1-outside-1_142_442)"/>
<defs>
<linearGradient id="paint0_linear_142_442" x1="61" y1="-151" x2="61" y2="303" gradientUnits="userSpaceOnUse">
<stop offset="0.35396" stop-color="#FFCD00" stop-opacity="0"/>
<stop offset="0.52" stop-color="#FFCD00" stop-opacity="0.3"/>
<stop offset="0.791407" stop-color="#FFCD00" stop-opacity="0"/>
</linearGradient>
</defs>
</svg>
