<svg width="184" height="216" viewBox="0 0 184 216" fill="none" xmlns="http://www.w3.org/2000/svg">
<mask id="path-1-outside-1_142_443" maskUnits="userSpaceOnUse" x="-1" y="-1" width="186" height="218" fill="black">
<rect fill="white" x="-1" y="-1" width="186" height="218"/>
<path d="M183.773 216H0.765625V189.438C4.28125 185.401 9.16406 180.909 15.4141 175.961C21.6641 170.883 29.0859 165.414 37.6797 159.555C42.888 156.039 49.138 152.198 56.4297 148.031C63.7214 143.865 71.9896 139.307 81.2344 134.359C91.5208 128.891 99.3984 124.073 104.867 119.906C110.466 115.74 115.544 110.596 120.102 104.477C123.096 100.44 125.505 95.4271 127.328 89.4375C129.151 83.3177 130.062 74.6589 130.062 63.4609C130.062 47.1849 125.701 35.2708 116.977 27.7188C108.253 20.0365 97.0547 16.1953 83.3828 16.1953C74.9193 16.1953 66.9115 17.888 59.3594 21.2734C51.8073 24.5286 46.1432 29.0859 42.3672 34.9453C43.2786 39.112 44.3854 44.0599 45.6875 49.7891C47.1198 55.5182 47.8359 61.1172 47.8359 66.5859C47.8359 71.5339 45.7526 75.9609 41.5859 79.8672C37.5495 83.6432 31.4948 85.5312 23.4219 85.5312C16.9115 85.5312 11.8984 83.3177 8.38281 78.8906C4.86719 74.3333 3.10938 68.2786 3.10938 60.7266C3.10938 53.6953 5.0625 46.6641 8.96875 39.6328C12.875 32.4714 18.474 25.8958 25.7656 19.9062C32.9271 14.0469 41.7812 9.29427 52.3281 5.64844C62.875 2.0026 74.2682 0.179688 86.5078 0.179688C113.201 0.179688 134.359 6.16927 149.984 18.1484C165.74 29.9974 173.617 45.8828 173.617 65.8047C173.617 75.3099 172.185 83.9688 169.32 91.7812C166.586 99.5938 162.094 106.495 155.844 112.484C148.943 119.125 140.87 124.854 131.625 129.672C122.38 134.359 108.253 140.935 89.2422 149.398C77.9141 154.477 67.3672 159.815 57.6016 165.414C47.8359 170.883 39.8281 176.221 33.5781 181.43H183.773V216Z"/>
</mask>
<path d="M183.773 216V217H184.773V216H183.773ZM0.765625 216H-0.234375V217H0.765625V216ZM0.765625 189.438L0.0115433 188.781L-0.234375 189.063V189.438H0.765625ZM15.4141 175.961L16.0348 176.745L16.0447 176.737L15.4141 175.961ZM37.6797 159.555L37.1202 158.726L37.1164 158.728L37.6797 159.555ZM56.4297 148.031L55.9335 147.163L56.4297 148.031ZM81.2344 134.359L80.7649 133.476L80.7625 133.478L81.2344 134.359ZM104.867 119.906L104.27 119.104L104.261 119.111L104.867 119.906ZM120.102 104.477L120.904 105.074L120.905 105.072L120.102 104.477ZM127.328 89.4375L128.285 89.7287L128.287 89.723L127.328 89.4375ZM116.977 27.7188L116.316 28.4693L116.322 28.4748L116.977 27.7188ZM59.3594 21.2734L59.7552 22.1918L59.7618 22.1889L59.7684 22.1859L59.3594 21.2734ZM42.3672 34.9453L41.5266 34.4036L41.3015 34.753L41.3903 35.159L42.3672 34.9453ZM45.6875 49.7891L44.7124 50.0107L44.7147 50.0212L44.7174 50.0316L45.6875 49.7891ZM41.5859 79.8672L42.2691 80.5975L42.2699 80.5967L41.5859 79.8672ZM8.38281 78.8906L7.59095 79.5015L7.5997 79.5125L8.38281 78.8906ZM8.96875 39.6328L9.84293 40.1185L9.84665 40.1117L8.96875 39.6328ZM25.7656 19.9062L25.1324 19.1323L25.1309 19.1335L25.7656 19.9062ZM149.984 18.1484L149.376 18.9421L149.383 18.9476L149.984 18.1484ZM169.32 91.7812L168.381 91.437L168.379 91.4439L168.376 91.4509L169.32 91.7812ZM155.844 112.484L155.152 111.762L155.15 111.764L155.844 112.484ZM131.625 129.672L132.077 130.564L132.087 130.559L131.625 129.672ZM89.2422 149.398L88.8355 148.485L88.8331 148.486L89.2422 149.398ZM57.6016 165.414L58.0902 166.287L58.0989 166.282L57.6016 165.414ZM33.5781 181.43L32.9379 180.661L30.8161 182.43H33.5781V181.43ZM183.773 181.43H184.773V180.43H183.773V181.43ZM183.773 215H0.765625V217H183.773V215ZM1.76562 216V189.438H-0.234375V216H1.76562ZM1.51971 190.094C4.98046 186.121 9.81207 181.671 16.0348 176.745L14.7934 175.177C8.51605 180.146 3.58204 184.681 0.0115433 188.781L1.51971 190.094ZM16.0447 176.737C22.2678 171.681 29.6661 166.229 38.243 160.381L37.1164 158.728C28.5058 164.599 21.0604 170.085 14.7835 175.185L16.0447 176.737ZM38.2392 160.384C43.4214 156.886 49.6491 153.058 56.9258 148.9L55.9335 147.163C48.627 151.338 42.3547 155.193 37.1202 158.726L38.2392 160.384ZM56.9258 148.9C64.2078 144.738 72.4677 140.186 81.7063 135.241L80.7625 133.478C71.5115 138.429 63.2349 142.991 55.9335 147.163L56.9258 148.9ZM81.7038 135.242C92.0101 129.763 99.9419 124.916 105.473 120.702L104.261 119.111C98.8549 123.23 91.0315 128.018 80.7649 133.476L81.7038 135.242ZM105.464 120.708C111.148 116.479 116.294 111.264 120.904 105.074L119.3 103.879C114.795 109.928 109.784 115 104.27 119.104L105.464 120.708ZM120.905 105.072C123.982 100.924 126.436 95.802 128.285 89.7287L126.371 89.1463C124.574 95.0522 122.211 99.9557 119.298 103.881L120.905 105.072ZM128.287 89.723C130.15 83.4661 131.062 74.6945 131.062 63.4609H129.062C129.062 74.6232 128.152 83.1693 126.37 89.152L128.287 89.723ZM131.062 63.4609C131.062 47.0181 126.653 34.7728 117.631 26.9627L116.322 28.4748C124.748 35.7688 129.062 47.3517 129.062 63.4609H131.062ZM117.637 26.9683C108.7 19.0976 97.2527 15.1953 83.3828 15.1953V17.1953C96.8567 17.1953 107.806 20.9754 116.316 28.4692L117.637 26.9683ZM83.3828 15.1953C74.7816 15.1953 66.634 16.9165 58.9503 20.3609L59.7684 22.1859C67.1889 18.8595 75.057 17.1953 83.3828 17.1953V15.1953ZM58.9635 20.3551C51.2626 23.6745 45.4284 28.3491 41.5266 34.4036L43.2078 35.487C46.8581 29.8228 52.352 25.3828 59.7552 22.1918L58.9635 20.3551ZM41.3903 35.159C42.3025 39.3291 43.4099 44.2798 44.7124 50.0107L46.6626 49.5674C45.3609 43.84 44.2548 38.8949 43.3441 34.7316L41.3903 35.159ZM44.7174 50.0316C46.1314 55.6877 46.8359 61.2052 46.8359 66.5859H48.8359C48.8359 61.0292 48.1082 55.3487 46.6576 49.5465L44.7174 50.0316ZM46.8359 66.5859C46.8359 71.214 44.9011 75.3885 40.902 79.1376L42.2699 80.5967C46.6041 76.5334 48.8359 71.8537 48.8359 66.5859H46.8359ZM40.9028 79.1369C37.1215 82.6742 31.3566 84.5312 23.4219 84.5312V86.5312C31.633 86.5312 37.9774 84.6122 42.2691 80.5975L40.9028 79.1369ZM23.4219 84.5312C17.1644 84.5312 12.4616 82.4189 9.16592 78.2687L7.5997 79.5125C11.3352 84.2165 16.6585 86.5312 23.4219 86.5312V84.5312ZM9.17459 78.2798C5.83085 73.9453 4.10938 68.1268 4.10938 60.7266H2.10938C2.10938 68.4305 3.90352 74.7213 7.59103 79.5014L9.17459 78.2798ZM4.10938 60.7266C4.10938 53.8884 6.00716 47.0228 9.84291 40.1185L8.09459 39.1472C4.11784 46.3053 2.10938 53.5022 2.10938 60.7266H4.10938ZM9.84665 40.1117C13.6826 33.0791 19.1925 26.5997 26.4004 20.679L25.1309 19.1335C17.7554 25.1919 12.0674 31.8636 8.09085 39.154L9.84665 40.1117ZM26.3989 20.6802C33.4524 14.9091 42.1971 10.2086 52.6548 6.59357L52.0014 4.70331C41.3654 8.37997 32.4018 13.1846 25.1324 19.1323L26.3989 20.6802ZM52.6548 6.59357C63.0869 2.98741 74.3687 1.17969 86.5078 1.17969V-0.820312C74.1678 -0.820312 62.6631 1.01781 52.0014 4.70331L52.6548 6.59357ZM86.5078 1.17969C113.058 1.17969 133.978 7.13725 149.376 18.942L150.593 17.3548C134.74 5.20129 113.343 -0.820312 86.5078 -0.820312V1.17969ZM149.383 18.9476C164.884 30.6053 172.617 46.1932 172.617 65.8047H174.617C174.617 45.5724 166.595 29.3894 150.585 17.3492L149.383 18.9476ZM172.617 65.8047C172.617 75.2089 171.2 83.7493 168.381 91.437L170.259 92.1255C173.17 84.1882 174.617 75.4108 174.617 65.8047H172.617ZM168.376 91.4509C165.696 99.108 161.294 105.877 155.152 111.762L156.536 113.206C162.894 107.113 167.475 100.08 170.264 92.1116L168.376 91.4509ZM155.15 111.764C148.324 118.333 140.33 124.008 131.163 128.785L132.087 130.559C141.409 125.701 149.562 119.917 156.537 113.205L155.15 111.764ZM131.173 128.78C121.951 133.456 107.843 140.023 88.8355 148.485L89.6489 150.312C108.663 141.847 122.809 135.263 132.077 130.564L131.173 128.78ZM88.8331 148.486C77.4779 153.576 66.9012 158.93 57.1042 164.547L58.0989 166.282C67.8332 160.701 78.3503 155.377 89.6512 150.311L88.8331 148.486ZM57.113 164.542C47.3121 170.03 39.249 175.402 32.9379 180.661L34.2183 182.198C40.4073 177.04 48.3597 171.736 58.0902 166.287L57.113 164.542ZM33.5781 182.43H183.773V180.43H33.5781V182.43ZM182.773 181.43V216H184.773V181.43H182.773Z" fill="url(#paint0_linear_142_443)" fill-opacity="0.7" mask="url(#path-1-outside-1_142_443)"/>
<defs>
<linearGradient id="paint0_linear_142_443" x1="91" y1="-151" x2="91" y2="303" gradientUnits="userSpaceOnUse">
<stop offset="0.368867" stop-color="#FFCD00" stop-opacity="0"/>
<stop offset="0.52" stop-color="#FFCD00" stop-opacity="0.3"/>
<stop offset="0.775723" stop-color="#FFCD00" stop-opacity="0"/>
</linearGradient>
</defs>
</svg>
