<svg width="1433" height="625" viewBox="0 0 1433 625" fill="none" xmlns="http://www.w3.org/2000/svg">
<mask id="path-1-outside-1_142_476" maskUnits="userSpaceOnUse" x="157" y="112" width="1121" height="497" fill="black">
<rect fill="white" x="157" y="112" width="1121" height="497"/>
<path d="M456.969 218.258H436.827C433.067 204.114 425.19 188.985 413.194 172.872C401.378 156.759 390.009 147.896 379.088 146.285C373.538 145.569 366.913 145.032 359.215 144.674C351.695 144.316 343.102 144.137 333.434 144.137H269.518V297.213H313.292C326.541 297.213 336.835 295.87 344.176 293.185C351.516 290.32 357.783 286.023 362.975 280.294C366.555 276.355 369.778 270.268 372.643 262.032C375.686 253.618 377.656 244.666 378.551 235.177H398.961V384.762H378.551C378.014 376.884 376.134 367.932 372.911 357.906C369.868 347.88 366.555 340.629 362.975 336.153C357.604 329.529 350.8 325.053 342.564 322.726C334.508 320.219 324.75 318.966 313.292 318.966H269.518V450.289C269.518 456.197 270.681 461.479 273.009 466.134C275.336 470.789 279.454 474.549 285.362 477.413C288.048 478.666 293.867 480.188 302.818 481.979C311.77 483.769 318.574 484.754 323.229 484.933V504H158.067V484.933C163.438 484.575 170.6 484.037 179.552 483.321C188.504 482.426 194.322 481.352 197.008 480.099C202.379 477.771 206.228 474.369 208.556 469.894C211.062 465.239 212.315 459.688 212.315 453.243V178.243C212.315 172.335 211.331 167.143 209.361 162.667C207.392 158.012 203.274 154.252 197.008 151.388C192.174 149.06 185.639 147.001 177.403 145.211C169.347 143.421 162.901 142.346 158.067 141.988V122.921H456.969V218.258ZM873.873 504H715.157V484.933C729.122 484.037 740.67 482.247 749.801 479.562C759.111 476.876 763.766 473.564 763.766 469.625C763.766 468.014 763.587 466.044 763.229 463.717C762.87 461.389 762.333 459.33 761.617 457.54L729.928 372.14H596.456C591.443 384.672 587.325 395.593 584.103 404.903C581.059 414.213 578.284 422.807 575.777 430.685C573.45 438.383 571.839 444.649 570.943 449.483C570.048 454.317 569.601 458.256 569.601 461.3C569.601 468.461 575.24 474.011 586.52 477.95C597.799 481.889 610.51 484.216 624.654 484.933V504H481.246V484.933C485.901 484.575 491.72 483.59 498.702 481.979C505.685 480.188 511.414 477.861 515.89 474.996C523.051 470.162 528.601 465.149 532.54 459.957C536.479 454.586 540.328 447.245 544.088 437.936C563.245 390.133 584.371 336.422 607.467 276.803C630.562 217.184 651.152 164.099 669.234 117.55H690.719L817.745 446.261C820.431 453.243 823.474 458.883 826.876 463.18C830.278 467.477 835.022 471.684 841.109 475.802C845.227 478.308 850.598 480.457 857.223 482.247C863.847 483.858 869.397 484.754 873.873 484.933V504ZM720.26 348.238L662.521 200.533L605.855 348.238H720.26ZM1222.83 168.038C1239.66 185.584 1252.82 206.799 1262.31 231.686C1271.8 256.393 1276.54 283.785 1276.54 313.863C1276.54 337.854 1273.41 360.055 1267.14 380.465C1260.88 400.875 1252.02 419.137 1240.56 435.25C1229.64 450.647 1216.66 464.075 1201.62 475.533C1186.58 486.992 1169.75 496.033 1151.13 502.657C1151.49 522.351 1158.56 539.986 1172.34 555.562C1186.13 571.318 1200.99 579.195 1216.92 579.195C1231.61 579.195 1242.8 578.658 1250.49 577.584C1258.19 576.689 1264.55 575.794 1269.56 574.898V596.114C1261.5 598.442 1251.39 600.859 1239.21 603.365C1227.22 606.051 1210.48 607.394 1189 607.394C1177 607.394 1165.27 605.603 1153.81 602.022C1142.36 598.621 1131.97 593.071 1122.66 585.372C1113.35 577.674 1105.56 567.916 1099.3 556.1C1093.21 544.283 1089.27 529.781 1087.48 512.594C1061.88 511.699 1038.16 506.238 1016.31 496.212C994.472 486.007 975.763 472.132 960.187 454.586C944.431 436.861 932.167 416.093 923.395 392.281C914.622 368.29 910.235 342.151 910.235 313.863C910.235 282.89 915.069 255.318 924.737 231.148C934.405 206.799 947.743 185.763 964.752 168.038C981.581 150.493 1001.1 137.065 1023.3 127.755C1045.68 118.445 1069.04 113.79 1093.39 113.79C1118.63 113.79 1142.45 118.535 1164.83 128.023C1187.2 137.512 1206.54 150.851 1222.83 168.038ZM1182.82 438.204C1192.84 421.912 1200.1 403.471 1204.57 382.882C1209.23 362.293 1211.55 339.286 1211.55 313.863C1211.55 287.724 1208.96 263.733 1203.77 241.891C1198.75 220.048 1191.32 201.428 1181.48 186.031C1171.63 170.813 1159.28 158.997 1144.42 150.582C1129.56 141.988 1112.55 137.691 1093.39 137.691C1071.91 137.691 1053.64 142.615 1038.6 152.462C1023.57 162.309 1011.3 175.468 1001.81 191.939C992.861 207.695 986.147 226.135 981.671 247.262C977.374 268.388 975.226 290.589 975.226 313.863C975.226 339.645 977.553 362.919 982.208 383.688C986.863 404.456 994.203 422.896 1004.23 439.01C1013.9 454.765 1026.07 467.118 1040.75 476.07C1055.43 484.843 1072.98 489.229 1093.39 489.229C1112.55 489.229 1129.82 484.754 1145.22 475.802C1160.62 466.85 1173.15 454.317 1182.82 438.204Z"/>
</mask>
<path d="M456.969 218.258V219.258H457.969V218.258H456.969ZM436.827 218.258L435.861 218.515L436.058 219.258H436.827V218.258ZM413.194 172.872L412.388 173.463L412.392 173.469L413.194 172.872ZM379.088 146.285L379.234 145.296L379.225 145.295L379.216 145.293L379.088 146.285ZM359.215 144.674L359.167 145.673L359.168 145.673L359.215 144.674ZM269.518 144.137V143.137H268.518V144.137H269.518ZM269.518 297.213H268.518V298.213H269.518V297.213ZM344.176 293.185L344.519 294.124L344.529 294.12L344.539 294.116L344.176 293.185ZM362.975 280.294L362.235 279.621L362.234 279.622L362.975 280.294ZM372.643 262.032L371.702 261.692L371.698 261.704L372.643 262.032ZM378.551 235.177V234.177H377.641L377.555 235.083L378.551 235.177ZM398.961 235.177H399.961V234.177H398.961V235.177ZM398.961 384.762V385.762H399.961V384.762H398.961ZM378.551 384.762L377.553 384.83L377.617 385.762H378.551V384.762ZM372.911 357.906L371.954 358.197L371.957 358.205L371.959 358.212L372.911 357.906ZM362.975 336.153L363.755 335.529L363.751 335.524L362.975 336.153ZM342.564 322.726L342.267 323.68L342.28 323.684L342.293 323.688L342.564 322.726ZM269.518 318.966V317.966H268.518V318.966H269.518ZM273.009 466.134L273.903 465.687L273.009 466.134ZM285.362 477.413L284.926 478.313L284.933 478.316L284.939 478.319L285.362 477.413ZM323.229 484.933H324.229V483.97L323.267 483.933L323.229 484.933ZM323.229 504V505H324.229V504H323.229ZM158.067 504H157.067V505H158.067V504ZM158.067 484.933L158.001 483.935L157.067 483.997V484.933H158.067ZM179.552 483.321L179.632 484.318L179.641 484.317L179.651 484.316L179.552 483.321ZM197.008 480.099L196.61 479.181L196.597 479.187L196.585 479.192L197.008 480.099ZM208.556 469.894L207.675 469.419L207.672 469.426L207.668 469.432L208.556 469.894ZM209.361 162.667L208.44 163.057L208.443 163.063L208.446 163.07L209.361 162.667ZM197.008 151.388L196.574 152.289L196.583 152.293L196.592 152.297L197.008 151.388ZM177.403 145.211L177.186 146.187L177.191 146.188L177.403 145.211ZM158.067 141.988H157.067V142.917L157.994 142.986L158.067 141.988ZM158.067 122.921V121.921H157.067V122.921H158.067ZM456.969 122.921H457.969V121.921H456.969V122.921ZM456.969 217.258H436.827V219.258H456.969V217.258ZM437.794 218.001C433.991 203.698 426.041 188.455 413.996 172.275L412.392 173.469C424.338 189.516 432.143 204.53 435.861 218.515L437.794 218.001ZM414.001 172.281C402.143 156.111 390.566 146.968 379.234 145.296L378.942 147.274C389.452 148.825 400.613 157.406 412.388 173.463L414.001 172.281ZM379.216 145.293C373.631 144.573 366.978 144.034 359.261 143.675L359.168 145.673C366.849 146.03 373.445 146.565 378.96 147.277L379.216 145.293ZM359.262 143.675C351.723 143.316 343.113 143.137 333.434 143.137V145.137C343.09 145.137 351.667 145.316 359.167 145.673L359.262 143.675ZM333.434 143.137H269.518V145.137H333.434V143.137ZM268.518 144.137V297.213H270.518V144.137H268.518ZM269.518 298.213H313.292V296.213H269.518V298.213ZM313.292 298.213C326.588 298.213 337.018 296.868 344.519 294.124L343.832 292.245C336.652 294.872 326.493 296.213 313.292 296.213V298.213ZM344.539 294.116C352.021 291.196 358.418 286.812 363.716 280.965L362.234 279.622C357.148 285.235 351.011 289.444 343.812 292.253L344.539 294.116ZM363.715 280.967C367.426 276.884 370.703 270.653 373.587 262.361L371.698 261.704C368.853 269.883 365.685 275.826 362.235 279.621L363.715 280.967ZM373.583 262.372C376.657 253.873 378.644 244.838 379.546 235.271L377.555 235.083C376.667 244.493 374.715 253.362 371.702 261.692L373.583 262.372ZM378.551 236.177H398.961V234.177H378.551V236.177ZM397.961 235.177V384.762H399.961V235.177H397.961ZM398.961 383.762H378.551V385.762H398.961V383.762ZM379.548 384.694C379.004 376.714 377.103 367.68 373.863 357.6L371.959 358.212C375.165 368.185 377.023 377.055 377.553 384.83L379.548 384.694ZM373.868 357.616C370.813 347.552 367.456 340.155 363.755 335.529L362.194 336.778C365.654 341.104 368.922 348.209 371.954 358.197L373.868 357.616ZM363.751 335.524C358.25 328.738 351.27 324.147 342.836 321.763L342.293 323.688C350.33 325.959 356.957 330.32 362.198 336.783L363.751 335.524ZM342.862 321.771C334.681 319.226 324.818 317.966 313.292 317.966V319.966C324.683 319.966 334.334 321.212 342.267 323.68L342.862 321.771ZM313.292 317.966H269.518V319.966H313.292V317.966ZM268.518 318.966V450.289H270.518V318.966H268.518ZM268.518 450.289C268.518 456.331 269.709 461.769 272.114 466.581L273.903 465.687C271.654 461.188 270.518 456.063 270.518 450.289H268.518ZM272.114 466.581C274.564 471.48 278.872 475.378 284.926 478.313L285.799 476.513C280.036 473.719 276.109 470.098 273.903 465.687L272.114 466.581ZM284.939 478.319C287.753 479.632 293.693 481.173 302.622 482.959L303.014 480.998C294.04 479.203 288.343 477.701 285.785 476.507L284.939 478.319ZM302.622 482.959C311.587 484.752 318.453 485.75 323.19 485.932L323.267 483.933C318.694 483.757 311.954 482.786 303.014 480.998L302.622 482.959ZM322.229 484.933V504H324.229V484.933H322.229ZM323.229 503H158.067V505H323.229V503ZM159.067 504V484.933H157.067V504H159.067ZM158.134 485.93C163.511 485.572 170.678 485.034 179.632 484.318L179.472 482.324C170.522 483.04 163.366 483.577 158.001 483.935L158.134 485.93ZM179.651 484.316C184.142 483.867 187.865 483.372 190.811 482.828C193.739 482.287 195.968 481.687 197.431 481.005L196.585 479.192C195.362 479.763 193.339 480.327 190.448 480.861C187.576 481.391 183.913 481.88 179.452 482.326L179.651 484.316ZM197.405 481.016C202.952 478.613 206.993 475.066 209.443 470.355L207.668 469.432C205.464 473.672 201.806 476.93 196.61 479.181L197.405 481.016ZM209.436 470.368C212.037 465.538 213.315 459.818 213.315 453.243H211.315C211.315 459.559 210.088 464.939 207.675 469.419L209.436 470.368ZM213.315 453.243V178.243H211.315V453.243H213.315ZM213.315 178.243C213.315 172.225 212.312 166.891 210.277 162.264L208.446 163.07C210.349 167.395 211.315 172.445 211.315 178.243H213.315ZM210.282 162.277C208.185 157.319 203.834 153.409 197.424 150.478L196.592 152.297C202.714 155.096 206.599 158.705 208.44 163.057L210.282 162.277ZM197.442 150.487C192.509 148.112 185.89 146.032 177.616 144.234L177.191 146.188C185.388 147.97 191.839 150.009 196.574 152.289L197.442 150.487ZM177.62 144.235C169.544 142.44 163.045 141.354 158.141 140.991L157.994 142.986C162.758 143.338 169.149 144.401 177.186 146.187L177.62 144.235ZM159.067 141.988V122.921H157.067V141.988H159.067ZM158.067 123.921H456.969V121.921H158.067V123.921ZM455.969 122.921V218.258H457.969V122.921H455.969ZM873.873 504V505H874.873V504H873.873ZM715.157 504H714.157V505H715.157V504ZM715.157 484.933L715.093 483.935L714.157 483.995V484.933H715.157ZM749.801 479.562L749.524 478.601L749.519 478.602L749.801 479.562ZM761.617 457.54L760.68 457.888L760.684 457.9L760.689 457.911L761.617 457.54ZM729.928 372.14L730.865 371.792L730.623 371.14H729.928V372.14ZM596.456 372.14V371.14H595.779L595.528 371.768L596.456 372.14ZM584.103 404.903L583.158 404.576L583.155 404.584L583.152 404.593L584.103 404.903ZM575.777 430.685L574.824 430.381L574.822 430.388L574.82 430.395L575.777 430.685ZM624.654 484.933H625.654V483.982L624.705 483.934L624.654 484.933ZM624.654 504V505H625.654V504H624.654ZM481.246 504H480.246V505H481.246V504ZM481.246 484.933L481.169 483.936L480.246 484.007V484.933H481.246ZM498.702 481.979L498.927 482.953L498.939 482.95L498.951 482.947L498.702 481.979ZM515.89 474.996L516.429 475.838L516.439 475.832L516.449 475.825L515.89 474.996ZM532.54 459.957L533.337 460.561L533.342 460.555L533.346 460.548L532.54 459.957ZM544.088 437.936L545.015 438.31L545.016 438.308L544.088 437.936ZM669.234 117.55V116.55H668.55L668.302 117.188L669.234 117.55ZM690.719 117.55L691.652 117.189L691.404 116.55H690.719V117.55ZM817.745 446.261L818.678 445.902L818.678 445.9L817.745 446.261ZM841.109 475.802L840.549 476.63L840.569 476.643L840.589 476.656L841.109 475.802ZM857.223 482.247L856.962 483.212L856.974 483.216L856.986 483.219L857.223 482.247ZM873.873 484.933H874.873V483.972L873.913 483.933L873.873 484.933ZM720.26 348.238V349.238H721.724L721.191 347.874L720.26 348.238ZM662.521 200.533L663.452 200.169L662.512 197.764L661.587 200.175L662.521 200.533ZM605.855 348.238L604.922 347.88L604.401 349.238H605.855V348.238ZM873.873 503H715.157V505H873.873V503ZM716.157 504V484.933H714.157V504H716.157ZM715.221 485.931C729.229 485.033 740.856 483.235 750.083 480.521L749.519 478.602C740.484 481.26 729.015 483.042 715.093 483.935L715.221 485.931ZM750.078 480.522C754.777 479.167 758.393 477.63 760.854 475.878C763.319 474.124 764.766 472.047 764.766 469.625H762.766C762.766 471.142 761.884 472.69 759.695 474.248C757.501 475.809 754.135 477.271 749.524 478.601L750.078 480.522ZM764.766 469.625C764.766 467.945 764.58 465.922 764.217 463.565L762.24 463.869C762.594 466.167 762.766 468.082 762.766 469.625H764.766ZM764.217 463.565C763.85 461.178 763.295 459.043 762.546 457.169L760.689 457.911C761.371 459.618 761.891 461.601 762.24 463.869L764.217 463.565ZM762.555 457.192L730.865 371.792L728.99 372.488L760.68 457.888L762.555 457.192ZM729.928 371.14H596.456V373.14H729.928V371.14ZM595.528 371.768C590.511 384.311 586.387 395.247 583.158 404.576L585.048 405.23C588.264 395.94 592.375 385.034 597.385 372.511L595.528 371.768ZM583.152 404.593C580.108 413.905 577.332 422.501 574.824 430.381L576.73 430.988C579.236 423.113 582.01 414.522 585.053 405.214L583.152 404.593ZM574.82 430.395C572.488 438.11 570.865 444.416 569.96 449.301L571.927 449.665C572.812 444.883 574.412 438.656 576.735 430.974L574.82 430.395ZM569.96 449.301C569.06 454.164 568.601 458.17 568.601 461.3H570.601C570.601 458.343 571.037 454.471 571.927 449.665L569.96 449.301ZM568.601 461.3C568.601 469.137 574.813 474.921 586.19 478.894L586.849 477.006C575.667 473.101 570.601 467.785 570.601 461.3H568.601ZM586.19 478.894C597.574 482.87 610.382 485.211 624.604 485.931L624.705 483.934C610.639 483.222 598.024 480.908 586.849 477.006L586.19 478.894ZM623.654 484.933V504H625.654V484.933H623.654ZM624.654 503H481.246V505H624.654V503ZM482.246 504V484.933H480.246V504H482.246ZM481.323 485.93C486.047 485.566 491.919 484.57 498.927 482.953L498.477 481.004C491.521 482.609 485.756 483.583 481.169 483.936L481.323 485.93ZM498.951 482.947C506.002 481.139 511.838 478.777 516.429 475.838L515.351 474.154C510.99 476.945 505.367 479.237 498.454 481.01L498.951 482.947ZM516.449 475.825C523.674 470.948 529.314 465.864 533.337 460.561L531.743 459.353C527.888 464.434 522.429 469.376 515.33 474.167L516.449 475.825ZM533.346 460.548C537.352 455.086 541.238 447.662 545.015 438.31L543.161 437.561C539.418 446.829 535.605 454.086 531.734 459.366L533.346 460.548ZM545.016 438.308C564.175 390.5 585.302 336.786 608.399 277.164L606.534 276.441C583.44 336.058 562.315 389.765 543.16 437.564L545.016 438.308ZM608.399 277.164C631.495 217.545 652.084 164.461 670.167 117.912L668.302 117.188C650.219 163.738 629.63 216.822 606.534 276.441L608.399 277.164ZM669.234 118.55H690.719V116.55H669.234V118.55ZM689.786 117.91L816.812 446.621L818.678 445.9L691.652 117.189L689.786 117.91ZM816.812 446.62C819.521 453.665 822.609 459.401 826.092 463.8L827.66 462.559C824.339 458.364 821.34 452.822 818.678 445.902L816.812 446.62ZM826.092 463.8C829.575 468.2 834.404 472.473 840.549 476.63L841.67 474.973C835.64 470.895 830.981 466.754 827.66 462.559L826.092 463.8ZM840.589 476.656C844.814 479.227 850.281 481.407 856.962 483.212L857.484 481.282C850.915 479.506 845.64 477.389 841.629 474.948L840.589 476.656ZM856.986 483.219C863.645 484.839 869.266 485.749 873.833 485.932L873.913 483.933C869.528 483.758 864.049 482.878 857.459 481.275L856.986 483.219ZM872.873 484.933V504H874.873V484.933H872.873ZM721.191 347.874L663.452 200.169L661.589 200.897L719.328 348.602L721.191 347.874ZM661.587 200.175L604.922 347.88L606.789 348.596L663.454 200.891L661.587 200.175ZM605.855 349.238H720.26V347.238H605.855V349.238ZM1222.83 168.038L1222.11 168.726L1222.11 168.73L1222.83 168.038ZM1262.31 231.686L1261.38 232.042L1261.38 232.044L1262.31 231.686ZM1240.56 435.25L1239.74 434.67L1239.74 434.671L1240.56 435.25ZM1201.62 475.533L1201.01 474.738L1201.62 475.533ZM1151.13 502.657L1150.79 501.715L1150.12 501.956L1150.13 502.675L1151.13 502.657ZM1172.34 555.562L1173.1 554.904L1173.09 554.9L1172.34 555.562ZM1250.49 577.584L1250.38 576.591L1250.37 576.592L1250.36 576.594L1250.49 577.584ZM1269.56 574.898H1270.56V573.704L1269.39 573.914L1269.56 574.898ZM1269.56 596.114L1269.84 597.075L1270.56 596.866V596.114H1269.56ZM1239.21 603.365L1239.01 602.386L1239 602.388L1239 602.389L1239.21 603.365ZM1153.81 602.022L1154.11 601.068L1154.11 601.066L1154.1 601.064L1153.81 602.022ZM1099.3 556.1L1098.41 556.558L1098.41 556.568L1099.3 556.1ZM1087.48 512.594L1088.48 512.49L1088.39 511.625L1087.52 511.594L1087.48 512.594ZM1016.31 496.212L1015.89 497.118L1015.9 497.121L1016.31 496.212ZM960.187 454.586L960.934 453.922L960.934 453.922L960.187 454.586ZM923.395 392.281L922.455 392.625L922.456 392.627L923.395 392.281ZM924.737 231.148L925.666 231.52L925.667 231.517L924.737 231.148ZM964.752 168.038L965.474 168.73L965.474 168.73L964.752 168.038ZM1023.3 127.755L1022.91 126.832L1022.91 126.833L1023.3 127.755ZM1164.83 128.023L1165.22 127.103L1164.83 128.023ZM1182.82 438.204L1181.97 437.68L1181.96 437.69L1182.82 438.204ZM1204.57 382.882L1203.6 382.661L1203.59 382.669L1204.57 382.882ZM1203.77 241.891L1202.79 242.114L1202.79 242.122L1203.77 241.891ZM1181.48 186.031L1182.32 185.492L1182.32 185.488L1181.48 186.031ZM1144.42 150.582L1143.91 151.448L1143.92 151.452L1144.42 150.582ZM1001.81 191.939L1000.95 191.44L1000.94 191.445L1001.81 191.939ZM981.671 247.262L980.693 247.054L980.691 247.062L981.671 247.262ZM982.208 383.688L981.232 383.906L982.208 383.688ZM1004.23 439.01L1005.08 438.487L1005.08 438.481L1004.23 439.01ZM1040.75 476.07L1040.23 476.924L1040.24 476.929L1040.75 476.07ZM1222.11 168.73C1238.84 186.17 1251.93 207.269 1261.38 232.042L1263.24 231.329C1253.71 206.33 1240.49 184.997 1223.55 167.346L1222.11 168.73ZM1261.38 232.044C1270.82 256.622 1275.54 283.891 1275.54 313.863H1277.54C1277.54 283.679 1272.78 256.163 1263.24 231.327L1261.38 232.044ZM1275.54 313.863C1275.54 337.767 1272.42 359.867 1266.19 380.171L1268.1 380.758C1274.4 360.242 1277.54 337.942 1277.54 313.863H1275.54ZM1266.19 380.171C1259.95 400.487 1251.13 418.651 1239.74 434.67L1241.37 435.83C1252.9 419.622 1261.81 401.263 1268.1 380.758L1266.19 380.171ZM1239.74 434.671C1228.88 449.986 1215.97 463.341 1201.01 474.738L1202.22 476.329C1217.34 464.809 1230.39 451.308 1241.37 435.829L1239.74 434.671ZM1201.01 474.738C1186.06 486.131 1169.32 495.124 1150.79 501.715L1151.46 503.599C1170.18 496.942 1187.1 487.852 1202.22 476.329L1201.01 474.738ZM1150.13 502.675C1150.49 522.621 1157.66 540.482 1171.6 556.225L1173.09 554.9C1159.46 539.491 1152.48 522.081 1152.13 502.639L1150.13 502.675ZM1171.59 556.221C1185.5 572.121 1200.62 580.195 1216.92 580.195V578.195C1201.36 578.195 1186.76 570.514 1173.1 554.904L1171.59 556.221ZM1216.92 580.195C1231.62 580.195 1242.86 579.658 1250.63 578.574L1250.36 576.594C1242.73 577.658 1231.59 578.195 1216.92 578.195V580.195ZM1250.61 578.577C1258.32 577.681 1264.7 576.783 1269.74 575.883L1269.39 573.914C1264.4 574.804 1258.07 575.697 1250.38 576.591L1250.61 578.577ZM1268.56 574.898V596.114H1270.56V574.898H1268.56ZM1269.28 595.154C1261.26 597.471 1251.17 599.882 1239.01 602.386L1239.42 604.345C1251.61 601.835 1261.75 599.412 1269.84 597.075L1269.28 595.154ZM1239 602.389C1227.11 605.051 1210.45 606.394 1189 606.394V608.394C1210.51 608.394 1227.33 607.05 1239.43 604.341L1239 602.389ZM1189 606.394C1177.1 606.394 1165.47 604.619 1154.11 601.068L1153.52 602.977C1165.07 606.588 1176.9 608.394 1189 608.394V606.394ZM1154.1 601.064C1142.77 597.701 1132.51 592.215 1123.3 584.601L1122.02 586.143C1131.44 593.926 1141.94 599.541 1153.53 602.981L1154.1 601.064ZM1123.3 584.601C1114.1 576.995 1106.39 567.344 1100.18 555.631L1098.41 556.568C1104.74 568.488 1112.6 578.352 1122.02 586.143L1123.3 584.601ZM1100.19 555.642C1094.17 543.963 1090.26 529.589 1088.48 512.49L1086.49 512.697C1088.29 529.973 1092.25 544.603 1098.41 556.558L1100.19 555.642ZM1087.52 511.594C1062.04 510.703 1038.45 505.27 1016.73 495.303L1015.9 497.121C1037.87 507.206 1061.72 512.694 1087.45 513.593L1087.52 511.594ZM1016.74 495.306C995.015 485.157 976.417 471.363 960.934 453.922L959.439 455.25C975.108 472.9 993.929 486.857 1015.89 497.118L1016.74 495.306ZM960.934 453.922C945.267 436.297 933.066 415.638 924.333 391.936L922.456 392.627C931.269 416.548 943.595 437.426 959.439 455.25L960.934 453.922ZM924.334 391.938C915.605 368.068 911.235 342.046 911.235 313.863H909.235C909.235 342.256 913.638 368.513 922.455 392.625L924.334 391.938ZM911.235 313.863C911.235 282.994 916.053 255.551 925.666 231.52L923.809 230.777C914.086 255.085 909.235 282.786 909.235 313.863H911.235ZM925.667 231.517C935.29 207.281 948.56 186.356 965.474 168.73L964.03 167.346C946.927 185.17 933.52 206.318 923.808 230.779L925.667 231.517ZM965.474 168.73C982.209 151.283 1001.61 137.934 1023.68 128.677L1022.91 126.833C1000.58 136.196 980.953 149.703 964.03 167.346L965.474 168.73ZM1023.68 128.678C1045.94 119.419 1069.17 114.79 1093.39 114.79V112.79C1068.91 112.79 1045.41 117.471 1022.91 126.832L1023.68 128.678ZM1093.39 114.79C1118.5 114.79 1142.18 119.51 1164.43 128.944L1165.22 127.103C1142.71 117.559 1118.76 112.79 1093.39 112.79V114.79ZM1164.43 128.944C1186.69 138.381 1205.91 151.641 1222.11 168.726L1223.56 167.35C1207.17 150.06 1187.72 136.644 1165.22 127.103L1164.43 128.944ZM1183.67 438.728C1193.76 422.331 1201.05 403.783 1205.55 383.094L1203.59 382.669C1199.14 403.16 1191.93 421.493 1181.97 437.68L1183.67 438.728ZM1205.55 383.102C1210.22 362.428 1212.55 339.346 1212.55 313.863H1210.55C1210.55 339.227 1208.23 362.157 1203.6 382.661L1205.55 383.102ZM1212.55 313.863C1212.55 287.658 1209.95 263.589 1204.74 241.659L1202.79 242.122C1207.96 263.877 1210.55 287.789 1210.55 313.863H1212.55ZM1204.74 241.667C1199.71 219.737 1192.24 201.005 1182.32 185.492L1180.63 186.57C1190.41 201.851 1197.8 220.359 1202.79 242.114L1204.74 241.667ZM1182.32 185.488C1172.39 170.143 1159.92 158.211 1144.91 149.712L1143.92 151.452C1158.63 159.783 1170.87 171.483 1180.64 186.575L1182.32 185.488ZM1144.92 149.716C1129.89 141.025 1112.7 136.691 1093.39 136.691V138.691C1112.39 138.691 1129.22 142.952 1143.91 151.448L1144.92 149.716ZM1093.39 136.691C1071.75 136.691 1053.29 141.652 1038.06 151.625L1039.15 153.299C1054 143.577 1072.06 138.691 1093.39 138.691V136.691ZM1038.06 151.625C1022.88 161.563 1010.51 174.841 1000.95 191.44L1002.68 192.439C1012.09 176.095 1024.25 163.055 1039.15 153.299L1038.06 151.625ZM1000.94 191.445C991.932 207.305 985.186 225.846 980.693 247.054L982.649 247.469C987.108 226.425 993.79 208.084 1002.68 192.433L1000.94 191.445ZM980.691 247.062C976.38 268.259 974.226 290.527 974.226 313.863H976.226C976.226 290.65 978.368 268.517 982.651 247.461L980.691 247.062ZM974.226 313.863C974.226 339.703 976.558 363.053 981.232 383.906L983.184 383.469C978.548 362.786 976.226 339.586 976.226 313.863H974.226ZM981.232 383.906C985.909 404.771 993.288 423.319 1003.38 439.538L1005.08 438.481C995.119 422.474 987.817 404.141 983.184 383.469L981.232 383.906ZM1003.38 439.533C1013.12 455.413 1025.41 467.884 1040.23 476.924L1041.27 475.217C1026.74 466.353 1014.67 454.117 1005.08 438.487L1003.38 439.533ZM1040.24 476.929C1055.1 485.811 1072.83 490.229 1093.39 490.229V488.229C1073.12 488.229 1055.76 483.876 1041.27 475.212L1040.24 476.929ZM1093.39 490.229C1112.71 490.229 1130.16 485.714 1145.72 476.666L1144.72 474.937C1129.49 483.794 1112.38 488.229 1093.39 488.229V490.229ZM1145.72 476.666C1161.27 467.625 1173.93 454.968 1183.68 438.719L1181.96 437.69C1172.37 453.666 1159.96 466.075 1144.72 474.937L1145.72 476.666Z" fill="url(#paint0_linear_142_476)" fill-opacity="0.3" mask="url(#path-1-outside-1_142_476)"/>
<defs>
<linearGradient id="paint0_linear_142_476" x1="716.5" y1="0" x2="716.5" y2="625" gradientUnits="userSpaceOnUse">
<stop offset="0.219111" stop-color="#FFCD00" stop-opacity="0"/>
<stop offset="0.472794" stop-color="#FFCD00" stop-opacity="0.2"/>
<stop offset="0.742951" stop-color="#FFCD00" stop-opacity="0"/>
</linearGradient>
</defs>
</svg>
