<svg width="1200" height="706" viewBox="0 0 1200 706" fill="none" xmlns="http://www.w3.org/2000/svg">
<mask id="path-1-outside-1_142_350" maskUnits="userSpaceOnUse" x="-1" y="-135" width="1229" height="841" fill="black">
<rect fill="white" x="-1" y="-135" width="1229" height="841"/>
<path d="M274.464 696.803H176.575V655.234C180.114 654.843 184.641 653.477 190.158 651.135C195.778 648.793 199.629 645.476 201.711 641.182C204.937 633.766 207.279 625.374 208.736 616.006C210.297 606.248 211.078 594.148 211.078 579.706V-24.5143H208.736L133.173 683.337H125.367L53.394 -39.1514H51.3644V456.754C51.3644 504.764 52.145 541.259 53.7062 566.24C55.3715 591.221 57.8695 609.176 61.2001 620.105C63.4899 628.301 68.2256 636.108 75.4073 643.524C82.5889 650.94 87.2726 654.843 89.4583 655.234V696.803H0V655.234C4.68368 653.672 9.57553 650.745 14.6755 646.451C19.8796 642.158 23.8868 635.718 26.697 627.13C30.3399 616.201 32.8378 599.418 34.1909 576.779C35.5439 554.14 36.2205 516.279 36.2205 463.195V38.1326C36.2205 13.5422 35.4399 -6.55943 33.8786 -22.1724C32.3174 -37.7853 30.0797 -50.4708 27.1654 -60.2289C23.9388 -70.7676 19.9837 -78.5741 15.3 -83.6483C10.6163 -88.7225 5.98471 -91.6499 1.4051 -92.4306V-134H76.9685L140.354 488.956L194.529 -32.1256C196.507 -51.2515 198.172 -71.1579 199.525 -91.8451C200.982 -112.923 201.763 -126.974 201.867 -134H274.152V-92.4306C271.237 -92.0402 267.49 -90.2838 262.911 -87.1612C258.435 -84.0386 255.157 -81.1112 253.075 -78.3789C249.536 -73.695 247.142 -65.8886 245.893 -54.9595C244.644 -44.0305 244.02 -32.1256 244.02 -19.2449V579.706C244.02 593.367 244.644 604.882 245.893 614.25C247.142 623.618 249.536 631.814 253.075 638.84C254.948 642.743 258.279 646.451 263.067 649.964C267.855 653.087 271.654 654.843 274.464 655.234V696.803ZM433.209 696.803H333.447V655.234C336.257 654.453 340.316 653.282 345.625 651.721C350.933 650.16 354.68 647.818 356.865 644.695C360.3 639.621 362.798 632.79 364.359 624.203C365.921 615.226 366.701 602.93 366.701 587.318V-14.5611C366.701 -28.2224 366.129 -39.5418 364.984 -48.5192C363.839 -57.887 361.133 -65.6934 356.865 -71.9386C353.743 -76.6225 349.788 -80.916 345 -84.8193C340.316 -89.1128 336.465 -91.6499 333.447 -92.4306V-134H433.209V-92.4306C429.983 -92.0402 426.132 -90.479 421.656 -87.7467C417.181 -85.4047 413.278 -82.2822 409.947 -78.3789C405.992 -73.695 403.338 -66.0837 401.985 -55.545C400.632 -45.0063 399.955 -33.2966 399.955 -20.4159V580.877C399.955 593.758 400.684 605.272 402.141 615.421C403.702 625.179 406.304 632.985 409.947 638.84C412.133 641.963 415.672 645.476 420.564 649.379C425.559 652.892 429.775 654.843 433.209 655.234V696.803ZM720.288 -92.4306C717.374 -92.0402 712.898 -88.9177 706.861 -83.0628C700.825 -77.208 696.505 -71.1579 693.903 -64.9128C690.156 -55.1547 687.606 -36.4192 686.253 -8.70621C685.004 19.0067 684.38 54.1358 684.38 96.6811V705H670.797L536.531 25.2519V453.827C536.531 501.837 537.312 538.722 538.873 564.484C540.539 590.245 543.037 608.59 546.367 619.519C548.761 628.106 553.705 636.108 561.199 643.524C568.693 650.94 573.637 654.843 576.031 655.234V696.803H485.167V655.234C487.977 654.453 492.713 650.745 499.374 644.11C506.036 637.084 510.199 630.839 511.864 625.374C515.507 614.445 518.005 597.856 519.358 575.608C520.711 552.969 521.388 514.522 521.388 460.267V51.0133C521.388 33.0584 520.555 15.1035 518.89 -2.85136C517.224 -20.8062 514.987 -34.6627 512.176 -44.4208C508.429 -57.3015 503.329 -68.2305 496.876 -77.208C490.527 -86.5757 485.375 -91.6499 481.42 -92.4306V-134H544.65L669.236 499.495V104.292C669.236 55.8923 668.403 18.8116 666.738 -6.94976C665.073 -33.1014 662.679 -50.4708 659.556 -59.0579C656.642 -66.4741 651.854 -73.695 645.193 -80.7209C638.636 -87.7467 633.64 -91.6499 630.205 -92.4306V-134H720.288V-92.4306ZM956.627 452.07L952.411 696.803H768.499V655.234C771.621 654.453 775.784 652.892 780.989 650.55C786.193 647.818 789.575 645.085 791.136 642.353C794.467 636.498 796.757 628.887 798.006 619.519C799.359 610.151 800.035 598.247 800.035 583.805V-13.3901C800.035 -26.2708 799.463 -37.5901 798.318 -47.3482C797.173 -57.4966 794.779 -65.6934 791.136 -71.9386C788.326 -77.0128 784.527 -81.5015 779.74 -85.4047C775.056 -89.308 771.309 -91.6499 768.499 -92.4306V-134H939.922V66.2359H928.212C926.131 36.5713 921.603 5.15027 914.63 -28.0272C907.76 -61.595 901.203 -79.9402 894.958 -83.0628C891.732 -84.6241 887.881 -85.7951 883.405 -86.5757C878.93 -87.3564 873.83 -87.7467 868.105 -87.7467H833.29V242.467H858.269C866.284 242.467 872.112 239.735 875.755 234.27C879.502 228.415 882.781 218.852 885.591 205.581C887.881 194.262 889.806 179.234 891.367 160.499C893.033 141.373 894.125 123.418 894.646 106.634H906.355V431.578H894.646C894.23 412.843 893.085 393.132 891.211 372.445C889.442 351.367 887.568 336.144 885.591 326.777C882.364 311.554 878.669 301.601 874.506 296.917C870.447 292.233 865.035 289.891 858.269 289.891H833.29V539.308C833.29 564.288 833.758 584 834.695 598.442C835.631 612.884 837.453 623.813 840.159 631.229C842.865 638.645 846.56 643.524 851.244 645.866C855.927 647.818 862.589 648.793 871.227 648.793C874.662 648.793 879.19 648.793 884.81 648.793C890.431 648.793 895.166 648.013 899.017 646.451C902.972 644.89 907.032 642.158 911.195 638.255C915.462 633.961 918.481 628.301 920.25 621.276C925.038 602.54 930.034 574.242 935.238 536.38C940.546 498.129 943.929 470.025 945.386 452.07H956.627ZM1227 696.803H1167.36C1154.14 619.129 1142.17 551.993 1131.45 495.396C1120.84 438.799 1109.28 380.446 1096.79 320.336H1074.16V583.805C1074.16 597.466 1074.73 609.566 1075.87 620.105C1077.02 630.253 1079.46 638.06 1083.21 643.524C1085.08 646.256 1088.36 648.793 1093.05 651.135C1097.73 653.477 1101.69 654.843 1104.91 655.234V696.803H1011.24V655.234C1013.74 654.453 1017.33 653.087 1022.01 651.135C1026.8 649.184 1030.13 646.647 1032 643.524C1035.13 638.45 1037.36 631.034 1038.72 621.276C1040.17 611.518 1040.9 599.027 1040.9 583.805V-16.903C1040.9 -30.5643 1040.38 -42.6643 1039.34 -53.2031C1038.3 -63.7418 1035.85 -71.7434 1032 -77.208C1029.4 -80.7209 1026.02 -83.8435 1021.85 -86.5757C1017.69 -89.6983 1014.15 -91.6499 1011.24 -92.4306V-134H1113.5C1122.87 -134 1131.66 -130.292 1139.88 -122.876C1148.11 -115.85 1155.55 -104.335 1162.21 -88.3322C1168.66 -72.7192 1173.81 -52.2273 1177.67 -26.8562C1181.52 -1.87555 1183.44 28.3745 1183.44 63.8939C1183.44 95.9004 1182.14 124.199 1179.54 148.789C1176.94 173.38 1173.09 194.652 1167.99 212.607C1163.3 229.391 1157.68 244.028 1151.12 256.518C1144.57 268.618 1137.33 278.962 1129.42 287.549C1140.35 341.804 1149.41 387.472 1156.59 424.553C1163.87 461.633 1172.77 506.716 1183.29 559.8C1187.87 583.219 1191.98 600.589 1195.62 611.908C1199.37 622.837 1203.06 631.814 1206.7 638.84C1209.41 643.914 1212.79 647.818 1216.85 650.55C1220.91 653.282 1224.29 654.843 1227 655.234V696.803ZM1144.88 77.3601C1144.88 27.0084 1141.03 -12.8046 1133.33 -42.0789C1125.62 -71.7434 1114.75 -86.5757 1100.7 -86.5757H1074.16V269.985H1094.61C1108.97 269.985 1120.94 252.81 1130.52 218.462C1140.09 183.723 1144.88 136.689 1144.88 77.3601Z"/>
</mask>
<path d="M274.464 696.803H176.575V655.234C180.114 654.843 184.641 653.477 190.158 651.135C195.778 648.793 199.629 645.476 201.711 641.182C204.937 633.766 207.279 625.374 208.736 616.006C210.297 606.248 211.078 594.148 211.078 579.706V-24.5143H208.736L133.173 683.337H125.367L53.394 -39.1514H51.3644V456.754C51.3644 504.764 52.145 541.259 53.7062 566.24C55.3715 591.221 57.8695 609.176 61.2001 620.105C63.4899 628.301 68.2256 636.108 75.4073 643.524C82.5889 650.94 87.2726 654.843 89.4583 655.234V696.803H0V655.234C4.68368 653.672 9.57553 650.745 14.6755 646.451C19.8796 642.158 23.8868 635.718 26.697 627.13C30.3399 616.201 32.8378 599.418 34.1909 576.779C35.5439 554.14 36.2205 516.279 36.2205 463.195V38.1326C36.2205 13.5422 35.4399 -6.55943 33.8786 -22.1724C32.3174 -37.7853 30.0797 -50.4708 27.1654 -60.2289C23.9388 -70.7676 19.9837 -78.5741 15.3 -83.6483C10.6163 -88.7225 5.98471 -91.6499 1.4051 -92.4306V-134H76.9685L140.354 488.956L194.529 -32.1256C196.507 -51.2515 198.172 -71.1579 199.525 -91.8451C200.982 -112.923 201.763 -126.974 201.867 -134H274.152V-92.4306C271.237 -92.0402 267.49 -90.2838 262.911 -87.1612C258.435 -84.0386 255.157 -81.1112 253.075 -78.3789C249.536 -73.695 247.142 -65.8886 245.893 -54.9595C244.644 -44.0305 244.02 -32.1256 244.02 -19.2449V579.706C244.02 593.367 244.644 604.882 245.893 614.25C247.142 623.618 249.536 631.814 253.075 638.84C254.948 642.743 258.279 646.451 263.067 649.964C267.855 653.087 271.654 654.843 274.464 655.234V696.803ZM433.209 696.803H333.447V655.234C336.257 654.453 340.316 653.282 345.625 651.721C350.933 650.16 354.68 647.818 356.865 644.695C360.3 639.621 362.798 632.79 364.359 624.203C365.921 615.226 366.701 602.93 366.701 587.318V-14.5611C366.701 -28.2224 366.129 -39.5418 364.984 -48.5192C363.839 -57.887 361.133 -65.6934 356.865 -71.9386C353.743 -76.6225 349.788 -80.916 345 -84.8193C340.316 -89.1128 336.465 -91.6499 333.447 -92.4306V-134H433.209V-92.4306C429.983 -92.0402 426.132 -90.479 421.656 -87.7467C417.181 -85.4047 413.278 -82.2822 409.947 -78.3789C405.992 -73.695 403.338 -66.0837 401.985 -55.545C400.632 -45.0063 399.955 -33.2966 399.955 -20.4159V580.877C399.955 593.758 400.684 605.272 402.141 615.421C403.702 625.179 406.304 632.985 409.947 638.84C412.133 641.963 415.672 645.476 420.564 649.379C425.559 652.892 429.775 654.843 433.209 655.234V696.803ZM720.288 -92.4306C717.374 -92.0402 712.898 -88.9177 706.861 -83.0628C700.825 -77.208 696.505 -71.1579 693.903 -64.9128C690.156 -55.1547 687.606 -36.4192 686.253 -8.70621C685.004 19.0067 684.38 54.1358 684.38 96.6811V705H670.797L536.531 25.2519V453.827C536.531 501.837 537.312 538.722 538.873 564.484C540.539 590.245 543.037 608.59 546.367 619.519C548.761 628.106 553.705 636.108 561.199 643.524C568.693 650.94 573.637 654.843 576.031 655.234V696.803H485.167V655.234C487.977 654.453 492.713 650.745 499.374 644.11C506.036 637.084 510.199 630.839 511.864 625.374C515.507 614.445 518.005 597.856 519.358 575.608C520.711 552.969 521.388 514.522 521.388 460.267V51.0133C521.388 33.0584 520.555 15.1035 518.89 -2.85136C517.224 -20.8062 514.987 -34.6627 512.176 -44.4208C508.429 -57.3015 503.329 -68.2305 496.876 -77.208C490.527 -86.5757 485.375 -91.6499 481.42 -92.4306V-134H544.65L669.236 499.495V104.292C669.236 55.8923 668.403 18.8116 666.738 -6.94976C665.073 -33.1014 662.679 -50.4708 659.556 -59.0579C656.642 -66.4741 651.854 -73.695 645.193 -80.7209C638.636 -87.7467 633.64 -91.6499 630.205 -92.4306V-134H720.288V-92.4306ZM956.627 452.07L952.411 696.803H768.499V655.234C771.621 654.453 775.784 652.892 780.989 650.55C786.193 647.818 789.575 645.085 791.136 642.353C794.467 636.498 796.757 628.887 798.006 619.519C799.359 610.151 800.035 598.247 800.035 583.805V-13.3901C800.035 -26.2708 799.463 -37.5901 798.318 -47.3482C797.173 -57.4966 794.779 -65.6934 791.136 -71.9386C788.326 -77.0128 784.527 -81.5015 779.74 -85.4047C775.056 -89.308 771.309 -91.6499 768.499 -92.4306V-134H939.922V66.2359H928.212C926.131 36.5713 921.603 5.15027 914.63 -28.0272C907.76 -61.595 901.203 -79.9402 894.958 -83.0628C891.732 -84.6241 887.881 -85.7951 883.405 -86.5757C878.93 -87.3564 873.83 -87.7467 868.105 -87.7467H833.29V242.467H858.269C866.284 242.467 872.112 239.735 875.755 234.27C879.502 228.415 882.781 218.852 885.591 205.581C887.881 194.262 889.806 179.234 891.367 160.499C893.033 141.373 894.125 123.418 894.646 106.634H906.355V431.578H894.646C894.23 412.843 893.085 393.132 891.211 372.445C889.442 351.367 887.568 336.144 885.591 326.777C882.364 311.554 878.669 301.601 874.506 296.917C870.447 292.233 865.035 289.891 858.269 289.891H833.29V539.308C833.29 564.288 833.758 584 834.695 598.442C835.631 612.884 837.453 623.813 840.159 631.229C842.865 638.645 846.56 643.524 851.244 645.866C855.927 647.818 862.589 648.793 871.227 648.793C874.662 648.793 879.19 648.793 884.81 648.793C890.431 648.793 895.166 648.013 899.017 646.451C902.972 644.89 907.032 642.158 911.195 638.255C915.462 633.961 918.481 628.301 920.25 621.276C925.038 602.54 930.034 574.242 935.238 536.38C940.546 498.129 943.929 470.025 945.386 452.07H956.627ZM1227 696.803H1167.36C1154.14 619.129 1142.17 551.993 1131.45 495.396C1120.84 438.799 1109.28 380.446 1096.79 320.336H1074.16V583.805C1074.16 597.466 1074.73 609.566 1075.87 620.105C1077.02 630.253 1079.46 638.06 1083.21 643.524C1085.08 646.256 1088.36 648.793 1093.05 651.135C1097.73 653.477 1101.69 654.843 1104.91 655.234V696.803H1011.24V655.234C1013.74 654.453 1017.33 653.087 1022.01 651.135C1026.8 649.184 1030.13 646.647 1032 643.524C1035.13 638.45 1037.36 631.034 1038.72 621.276C1040.17 611.518 1040.9 599.027 1040.9 583.805V-16.903C1040.9 -30.5643 1040.38 -42.6643 1039.34 -53.2031C1038.3 -63.7418 1035.85 -71.7434 1032 -77.208C1029.4 -80.7209 1026.02 -83.8435 1021.85 -86.5757C1017.69 -89.6983 1014.15 -91.6499 1011.24 -92.4306V-134H1113.5C1122.87 -134 1131.66 -130.292 1139.88 -122.876C1148.11 -115.85 1155.55 -104.335 1162.21 -88.3322C1168.66 -72.7192 1173.81 -52.2273 1177.67 -26.8562C1181.52 -1.87555 1183.44 28.3745 1183.44 63.8939C1183.44 95.9004 1182.14 124.199 1179.54 148.789C1176.94 173.38 1173.09 194.652 1167.99 212.607C1163.3 229.391 1157.68 244.028 1151.12 256.518C1144.57 268.618 1137.33 278.962 1129.42 287.549C1140.35 341.804 1149.41 387.472 1156.59 424.553C1163.87 461.633 1172.77 506.716 1183.29 559.8C1187.87 583.219 1191.98 600.589 1195.62 611.908C1199.37 622.837 1203.06 631.814 1206.7 638.84C1209.41 643.914 1212.79 647.818 1216.85 650.55C1220.91 653.282 1224.29 654.843 1227 655.234V696.803ZM1144.88 77.3601C1144.88 27.0084 1141.03 -12.8046 1133.33 -42.0789C1125.62 -71.7434 1114.75 -86.5757 1100.7 -86.5757H1074.16V269.985H1094.61C1108.97 269.985 1120.94 252.81 1130.52 218.462C1140.09 183.723 1144.88 136.689 1144.88 77.3601Z" stroke="url(#paint0_linear_142_350)" stroke-opacity="0.4" stroke-width="2" mask="url(#path-1-outside-1_142_350)"/>
<defs>
<linearGradient id="paint0_linear_142_350" x1="606.474" y1="-1751.02" x2="606.474" y2="2373.79" gradientUnits="userSpaceOnUse">
<stop offset="0.433465" stop-color="#FFCD00" stop-opacity="0"/>
<stop offset="0.5" stop-color="#FFCD00" stop-opacity="0.3"/>
<stop offset="0.561121" stop-color="#FFCD00" stop-opacity="0"/>
</linearGradient>
</defs>
</svg>
